PathFileType	4	(X/Y/Z)	4_coords_data.trc
DataRate	CameraRate	NumFrames	NumMarkers	Units	OrigDataRate	OrigDataStartFrame	OrigNumFrames
30.0	30.0	6	21	m	30.0	12	47
Frame#	Time	THUMB_TIP	THUMB_IP	THUMB_MCP	THUMB_CMC	INDEX_TIP	INDEX_DIP	INDEX_PIP	INDEX_MCP	MIDDLE_TIP	MIDDLE_DIP	MIDDLE_PIP	MIDDLE_MCP	RING_TIP	RING_DIP	RING_PIP	RING_MCP	PINKY_TIP	PINKY_DIP	PINKY_PIP	PINKY_MCP	WRIST
X1	Y1	Z1	X2	Y2	Z2	X3	Y3	Z3	X4	Y4	Z4	X5	Y5	Z5	X6	Y6	Z6	X7	Y7	Z7	X8	Y8	Z8	X9	Y9	Z9	X10	Y10	Z10	X11	Y11	Z11	X12	Y12	Z12	X13	Y13	Z13	X14	Y14	Z14	X15	Y15	Z15	X16	Y16	Z16	X17	Y17	Z17	X18	Y18	Z18	X19	Y19	Z19	X20	Y20	Z20	X21	Y21	Z21
11	0.36666666666666664	-0.03467670059204102	-0.08522039794921875	1.1243599853515625	-0.035343700408935544	-0.06611799621582032	1.1074100341796875	-0.05052199935913086	-0.04446089935302734	1.0950999755859374	-0.050090999603271485	-0.010565500259399414	1.0924200439453124	-0.047832500457763674	-0.14283500671386717	1.0745	-0.04661429977416992	-0.12130599975585937	1.0696600341796876	-0.04489229965209961	-0.09846910095214843	1.0638900146484376	-0.037420299530029295	-0.057391300201416015	1.046780029296875	-0.031931800842285155	-0.05601760101318359	1.088030029296875	-0.031553199768066406	-0.07633059692382813	1.08825	-0.023908300399780272	-0.09276999664306641	1.0719100341796874	-0.010917699813842774	-0.053957698822021484	1.0480899658203124	-0.01788640022277832	-0.05500619888305664	1.10093994140625	-0.015788299560546875	-0.0734041976928711	1.10031005859375	0.001427289962768554	-0.08571099853515625	1.0859300537109375	0.00796295976638794	-0.04881949996948242	1.06381005859375	0.06845870208740235	-0.09369280242919922	1.0851500244140626	0.05248630142211914	-0.07893910217285156	1.08677001953125	0.037016101837158207	-0.06568589782714844	1.086239990234375	0.014971699714660645	-0.04383530044555664	1.08497998046875	-0.034603599548339845	0.028360000610351564	1.0916300048828125
12	0.4	-0.03476959991455078	-0.08512470245361328	1.1245899658203125	-0.03495299911499023	-0.06564399719238281	1.10775	-0.0506254997253418	-0.04398720169067383	1.095280029296875	-0.05025830078125	-0.010041399955749512	1.0924599609375	-0.04799549865722656	-0.14236199951171874	1.07477001953125	-0.04678359985351563	-0.12094100189208984	1.0698299560546876	-0.04506840133666992	-0.09810099792480469	1.06406005859375	-0.0376234016418457	-0.05698379898071289	1.0469000244140625	-0.03203850173950195	-0.05562350082397461	1.08777001953125	-0.03151000022888183	-0.0757886962890625	1.0894200439453126	-0.024134199142456056	-0.09234120178222656	1.0720899658203125	-0.011274600028991699	-0.053553199768066405	1.0486500244140624	-0.0175	-0.05366889953613281	1.1000699462890624	-0.015730299949645997	-0.07293540191650391	1.1001400146484375	0.001320189952850341	-0.08533860015869141	1.086449951171875	0.007735819816589356	-0.04862179946899414	1.064050048828125	0.06825420379638672	-0.09330069732666016	1.085780029296875	0.052253398895263675	-0.07853749847412109	1.0872900390625	0.03682500076293945	-0.0653427963256836	1.0866800537109376	0.014671500205993653	-0.043477699279785155	1.0855799560546875	-0.03469580078125	0.028658899307250976	1.0919000244140624
13	0.43333333333333335	-0.03502989959716797	-0.08476090240478516	1.124739990234375	-0.035071701049804685	-0.06531410217285157	1.1077900390625	-0.050774398803710936	-0.04354779815673828	1.0956400146484375	-0.050338600158691404	-0.009666139602661133	1.0925799560546876	-0.04813740158081055	-0.14198699951171875	1.07477001953125	-0.046966300964355466	-0.12050299835205078	1.0698900146484376	-0.04526869964599609	-0.0976531982421875	1.064030029296875	-0.03788700103759766	-0.05659619903564453	1.04706005859375	-0.03253900146484375	-0.05513550186157227	1.0889599609375	-0.03172929954528809	-0.07544419860839843	1.08956005859375	-0.024398000717163085	-0.09194499969482423	1.07227001953125	-0.011470499992370606	-0.05311740112304687	1.0484000244140625	-0.017537099838256836	-0.05322520065307617	1.1001300048828124	-0.015828100204467774	-0.07198999786376953	1.1008900146484375	0.001208119988441467	-0.08494329833984375	1.086489990234375	0.007499040126800537	-0.04815340042114258	1.0641500244140625	0.06792250061035156	-0.09304239654541016	1.0860899658203125	0.05195909881591797	-0.07823789978027344	1.08747998046875	0.03647200012207031	-0.06502690124511719	1.0869599609375	0.014496299743652344	-0.043096500396728514	1.085469970703125	-0.03476940155029297	0.02905739974975586	1.0919200439453125
14	0.4666666666666667	-0.035085399627685546	-0.0844292984008789	1.12472998046875	-0.03520780181884765	-0.0652052993774414	1.10818994140625	-0.05099039840698242	-0.0431781005859375	1.0959000244140624	-0.050466400146484375	-0.00932077980041504	1.092800048828125	-0.04860689926147461	-0.14162399291992187	1.07518994140625	-0.04736119842529297	-0.1201729965209961	1.070219970703125	-0.045610599517822266	-0.0973031005859375	1.0643900146484375	-0.03808990097045899	-0.05628150177001953	1.0473699951171875	-0.0324989013671875	-0.054862300872802736	1.0886099853515625	-0.03152860069274902	-0.07487470245361329	1.0889200439453126	-0.024699300765991212	-0.09167389678955078	1.07243994140625	-0.011668999671936036	-0.05289709854125976	1.0484599609375	-0.017600799560546877	-0.053294700622558595	1.099989990234375	-0.016081499099731444	-0.07200830078125	1.10131005859375	0.00090226000547409	-0.08472669982910157	1.0868800048828124	0.007288269996643067	-0.047910598754882815	1.064280029296875	0.06727760314941406	-0.09330860137939453	1.0861199951171876	0.05144910049438477	-0.07839360046386719	1.0876099853515624	0.036118698120117185	-0.06501529693603515	1.0870899658203126	0.014256199836730958	-0.04283869934082031	1.085760009765625	-0.034593498229980466	0.029069299697875976	1.0911700439453125
15	0.5	-0.03538069915771484	-0.08428070068359375	1.12547998046875	-0.03542990112304688	-0.06458170318603515	1.1089000244140625	-0.05101419830322266	-0.04302679824829102	1.0965	-0.05062540054321289	-0.009082429885864258	1.0933800048828124	-0.04850289916992188	-0.14149000549316407	1.076219970703125	-0.04728829956054687	-0.12009999847412109	1.0711800537109375	-0.0455880012512207	-0.09726200103759766	1.065219970703125	-0.03816310119628906	-0.056183101654052735	1.04831005859375	-0.032730201721191406	-0.054746700286865235	1.089449951171875	-0.03196380043029785	-0.07495690155029297	1.0904100341796874	-0.02467289924621582	-0.09151470184326171	1.07327001953125	-0.01171969985961914	-0.052784400939941405	1.049489990234375	-0.018188600540161134	-0.05328469848632812	1.1026800537109376	-0.016058799743652343	-0.07155039978027344	1.102469970703125	0.0009406239986419671	-0.08456269836425781	1.08772998046875	0.007269690036773682	-0.047884300231933595	1.06493994140625	0.06719439697265625	-0.09309670257568359	1.0871800537109375	0.05133890151977539	-0.07815440368652343	1.08872998046875	0.03603630065917969	-0.06477330017089844	1.08793994140625	0.014150300025939942	-0.04264139938354492	1.086530029296875	-0.034873699188232424	0.02950219917297363	1.0925899658203124
16	0.5333333333333333	-0.035199100494384766	-0.08426950073242187	1.12627001953125	-0.035331401824951175	-0.06489469909667969	1.109530029296875	-0.050852699279785155	-0.043113998413085934	1.097199951171875	-0.050662700653076174	-0.009312210083007812	1.0939599609375	-0.048417598724365234	-0.14151400756835938	1.0773199462890626	-0.04721730041503906	-0.12012000274658204	1.07225	-0.045494800567626954	-0.09729599761962891	1.0661800537109376	-0.038130199432373044	-0.05633940124511719	1.049010009765625	-0.03314390182495117	-0.05482920074462891	1.08993994140625	-0.03179050064086914	-0.07498989868164062	1.091780029296875	-0.02455820083618164	-0.09163359832763672	1.0741400146484374	-0.011671199798583984	-0.05303609848022461	1.05031005859375	-0.017900899887084962	-0.05287969970703125	1.103260009765625	-0.01602899932861328	-0.07178900146484375	1.1023399658203126	0.001119070053100586	-0.08455870056152344	1.088449951171875	0.007329279899597168	-0.0479203987121582	1.065739990234375	0.06728700256347656	-0.09296340179443359	1.0884100341796874	0.051431198120117184	-0.07804309844970703	1.0898299560546876	0.036033599853515626	-0.06469159698486328	1.089010009765625	0.014262100219726563	-0.0426338996887207	1.0873800048828124	-0.035030200958251954	0.029366399765014647	1.09322998046875
